Coordinates
version=1
nRows=11
nColumns=24
inDegrees=yes

Units are S.I. units (second, meters, Newtons, ...)
Angles are in degrees.

endheader
time	pelvis_tilt	pelvis_list	pelvis_rotation	pelvis_tx	pelvis_ty	pelvis_tz	hip_flexion_r	hip_adduction_r	hip_rotation_r	knee_angle_r	ankle_angle_r	subtalar_angle_r	mtp_angle_r	hip_flexion_l	hip_adduction_l	hip_rotation_l	knee_angle_l	ankle_angle_l	subtalar_angle_l	mtp_angle_l	lumbar_extension	lumbar_bending	lumbar_rotation
      0.61666666666666670000	      3.76561446799720030000	      2.65262720802253860000	      0.91396022407738664000	      0.58552694422252782000	      1.00889040416724110000	     -0.01416591468371336500	     19.25576806816628000000	     -4.86224727817673940000	     -4.83808622101856310000	     -0.86954806878692570000	      1.66246879417368490000	     -0.00000096253793922657	      0.00000000000000000000	    -21.19113663135468400000	      4.67776435614326850000	      2.78082594515996370000	     -3.45182702014725780000	     11.49887819810254400000	      0.00000124150183233559	      0.00000000000000000000	    -16.62281210058321100000	     -3.54833651458908460000	     -5.96984161491331730000
      0.63333333333333330000	      3.72867674643670630000	      2.61354109771441800000	      1.44570478858367400000	      0.58647876501192420000	      1.00734604744906300000	     -0.01176344982186484100	     19.96467868934916700000	     -4.78404686736035420000	     -5.18979376533999390000	     -3.60886472365834040000	      1.01378369095983500000	     -0.00000149661122569777	      0.00000000000000000000	    -21.56707423693227800000	      4.17552628785935290000	      3.45930002357743760000	     -5.03318675241329580000	     11.98691655365320600000	      0.00000159518750052389	      0.00000000000000000000	    -16.60254950151505300000	     -3.19882166403104450000	     -6.26387760718611460000
      0.65000000000000002000	      3.59865384180263750000	      2.46016287335733090000	      1.93475311335190160000	      0.58797693516706595000	      1.00607500569010640000	     -0.00875509373157878220	     20.78034182602704800000	     -4.58735068086928430000	     -5.65716104782233580000	     -6.81120095538238330000	      0.00748000736360097520	     -0.00000212009169251846	      0.00000000000000000000	    -21.73748645785705900000	      3.55952309096005590000	      4.11033462221084460000	     -6.82257771806281350000	     12.29974040500358100000	      0.00000203206839535364	      0.00000000000000000000	    -16.37229881211586100000	     -2.81434975451757150000	     -6.63545666449740960000
      0.66666666666666663000	      3.46068431301085910000	      2.40238337231209980000	      2.32336733902288370000	      0.58992597590891438000	      1.00549943789670750000	     -0.00624527581861112920	     21.48036462308795100000	     -4.53849201036293160000	     -5.94111282559324660000	     -9.99506657125964890000	     -1.09753298301300780000	     -0.00000263914655798845	      0.00000000000000000000	    -21.67898890706696900000	      3.15839491142276780000	      4.74476911369491990000	     -9.04916628415209700000	     12.30510374665084300000	      0.00000241688426840540	      0.00000000000000000000	    -16.10024834592778800000	     -2.31454627287729100000	     -6.81021085106707160000
      0.68333333333333335000	      3.53452246583345930000	      2.35765422233699070000	      2.44632874216232570000	      0.59161037354845780000	      1.00567226544445210000	     -0.00342087638747230010	     22.10075428694244000000	     -4.44900318017273300000	     -5.89530864719007840000	    -13.55407896667028000000	     -1.70465641659271830000	     -0.00000299318134144881	      0.00000000000000000000	    -21.48013827287551400000	      2.90225134417493980000	      5.12783015132370410000	    -11.92726658624194900000	     12.01564197410096700000	      0.00000296805470362024	      0.00000000000000000000	    -15.99596631020864600000	     -1.84652228571699960000	     -6.70369727027088840000
      0.69999999999999996000	      3.81081051225749960000	      2.08266797379384940000	      2.74679738709486590000	      0.59499717039365219000	      1.00695332240057160000	     -0.00101658710369121640	     22.14608936237455300000	     -4.20317833874351890000	     -5.98633934750114350000	    -16.82188174482441000000	     -1.74111708152358410000	     -0.00000337474838631331	      0.00000000000000000000	    -21.21550923724363700000	      2.37694368095399660000	      5.50299439455605910000	    -15.39055399745322600000	     11.23411666042237500000	      0.00000357661777253964	      0.00000000000000000000	    -16.12404073344633900000	     -1.15014849334460670000	     -6.80240395875662160000
      0.71666666666666667000	      4.08460561908729320000	      1.82768074704194650000	      2.97129198425760950000	      0.59804555470255616000	      1.00873461523701290000	      0.00140481251508260360	     21.71933030924932600000	     -3.93960899926703420000	     -6.05290616570482600000	    -19.18683994653509100000	     -1.61507220246639300000	     -0.00000350126106904611	      0.00000000000000000000	    -20.33638524760126700000	      1.94691490033838540000	      5.58931743361372920000	    -19.83615147007644100000	      9.97278869305547390000	      0.00000443876202610739	      0.00000000000000000000	    -16.11968968118126700000	     -0.36181071803298626000	     -6.92470353852277040000
      0.73333333333333328000	      4.19440611846873960000	      1.68468053693527840000	      3.12680259651723260000	      0.60028210527331993000	      1.01029728414311550000	      0.00447660271493842580	     21.36863204082600700000	     -3.73633572965596450000	     -6.10589977032386950000	    -21.31235291437954900000	     -1.16419502751088190000	     -0.00000345920647936274	      0.00000000000000000000	    -18.33070547703163900000	      1.66390727998745990000	      5.25522251070543160000	    -25.81018299894189400000	      8.22866078670073800000	      0.00000562253645658370	      0.00000000000000000000	    -16.01949984337611400000	      0.10435928233290896000	     -6.77808886505041120000
      0.75000000000000000000	      4.28725572319224210000	      1.39730791894074740000	      3.20434754378776090000	      0.60292522144512950000	      1.01223510756685280000	      0.00759274466040842870	     20.57161541019784700000	     -3.33275612644499390000	     -6.30986232103785750000	    -22.62987527108663600000	     -0.48819988987680957000	     -0.00000295610105392840	      0.00000000000000000000	    -15.90239295809602300000	      1.14765483380816670000	      4.31443817102597740000	    -32.11730287199768000000	      5.45324554753017310000	      0.00000677285151385136	      0.00000000000000000000	    -15.86674397672661600000	      0.67657753609912485000	     -6.97369983377017100000
      0.76666666666666661000	      4.20533141714630170000	      1.05929570367818120000	      3.30638257562148000000	      0.60484334523957339000	      1.01398984518143260000	      0.01055565895845359800	     19.81190990185037700000	     -2.85133432820923490000	     -6.51558377548742130000	    -23.62217671576507500000	      0.50671344842051491000	     -0.00000272857440446061	      0.00000000000000000000	    -12.71857542527749100000	      0.36426800780202967000	      2.85772128298963550000	    -38.85921102229275400000	      1.82740129127787280000	      0.00000766927728214152	      0.00000000000000000000	    -15.62565809169152500000	      1.30923734577926940000	     -6.64552821761490440000
      0.78333333333333333000	      4.14449392101882010000	      0.48554372623292069000	      3.38925258330359690000	      0.60541368787632688000	      1.01576504652620030000	      0.01406251639217047600	     18.77728973306723900000	     -2.03008130839885140000	     -6.82335649024484340000	    -23.91646277100398500000	      1.42636199249748040000	     -0.00000237451685430586	      0.00000000000000000000	     -9.29586945643958630000	     -0.94593636925745195000	      1.13434862474277700000	    -45.36229544473386000000	     -2.06935557006766400000	      0.00000752487675719329	      0.00000000000000000000	    -15.46888810321113400000	      2.03239722147748520000	     -6.25302764902095020000
